<?xml version="1.0" encoding="UTF-8"?>
<svg width="600px" height="210px" viewBox="0 0 600 210" version="1.1" xmlns="http://www.w3.org/2000/svg" xmlns:xlink="http://www.w3.org/1999/xlink">
    <title>Multi‑cloud</title>
    <g id="Multi‑cloud" stroke="none" stroke-width="1" fill="none" fill-rule="evenodd">
        <g id="alibaba-cloud-member" transform="translate(21.000000, 54.000000)" fill="#FF6A00" fill-rule="nonzero">
            <polygon id="Path" points="13 9 25 9 25 13 13 13"></polygon>
            <path d="M31.8291119,0 L23.4101028,0 L25.4417691,2.77640213 L31.5795142,4.59316578 C32.6885613,4.93273879 33.4395699,5.93017872 33.432335,7.0539598 L33.4328263,7.06107878 L33.4328263,15.9465148 C33.4399939,17.0704244 32.6887558,18.0679047 31.5795142,18.4073088 L25.4417691,20.2235979 L23.4105941,23 L31.8296033,23 C35.3408415,22.9997379 38.1871947,20.2503348 38.187466,16.8586934 L38.187466,6.14178119 C38.187466,2.74995444 35.3410334,0.000262099278 31.8296033,0 L31.8291119,0 Z M6.35835411,0 L14.7763806,0 L12.7447143,2.77640213 L6.60746048,4.59316578 C5.49821892,4.93256992 4.74698078,5.93005024 4.75414839,7.0539598 L4.75414839,15.9465148 C4.74698078,17.0704244 5.49821892,18.0679047 6.60746048,18.4073088 L12.7447143,20.2235979 L14.7763806,23 L6.35884544,23 C4.67250508,23 3.05518107,22.3531679 1.86266622,21.2014495 C0.670151375,20.0497311 0,18.4875951 0,16.8586934 L0,6.14178119 C0,4.51279731 0.669963539,2.9505393 1.86249251,1.79871826 C3.05502148,0.646897212 4.67241996,0 6.35884544,0 L6.35835411,0 Z M141.264439,16.0599439 C141.240858,18.0553175 139.559565,19.660911 137.493696,19.660911 C135.427826,19.660911 133.746533,18.0553175 133.722953,16.0599439 L133.722953,7.2670546 C133.722953,5.25533273 135.411282,3.62450993 137.493942,3.62450993 C139.576601,3.62450993 141.26493,5.25533273 141.26493,7.2670546 L141.26493,7.37478849 L144.150535,7.37478849 L144.150535,7.2670546 C144.106252,3.74667031 141.139223,0.915313618 137.494433,0.915313618 C133.849643,0.915313618 130.882614,3.74667031 130.83833,7.2670546 L130.83833,16.0518757 C130.89013,19.5653589 133.852328,22.3879732 137.490072,22.3901794 C141.127817,22.3923829 144.093679,19.5733615 144.150044,16.0599439 L144.150535,15.9436672 L141.264439,15.9436672 L141.264439,16.0599439 Z M156.261429,6.59160015 C153.219019,6.57572431 150.700322,8.87135672 150.540335,11.8061161 L150.540335,17.1928109 C150.715083,20.1220424 153.225937,22.4105549 156.26349,22.4091695 C159.301043,22.4077828 161.809657,20.1169799 161.98154,17.1875903 L161.98154,11.7994718 C161.819735,8.86675175 159.301326,6.57410888 156.260937,6.59160015 L156.261429,6.59160015 Z M159.090039,16.8791012 C159.09039,17.85533 158.551538,18.7575836 157.676462,19.2459917 C156.801386,19.7343998 155.723033,19.7347616 154.847606,19.2469409 C153.97218,18.7591201 153.432678,17.8572284 153.432327,16.8809995 L153.432327,12.120775 C153.432327,10.611656 154.698849,9.38827329 156.261183,9.38827329 C157.823517,9.38827329 159.090039,10.611656 159.090039,12.120775 L159.090039,16.8791012 Z M145.586705,0.911229417 L148.463466,0.911229417 L148.463466,22.0593455 L145.586705,22.0593455 L145.586705,0.911229417 Z M66.3001271,6.59217531 L69.1768881,6.59217531 L69.1768881,22.0593455 L66.3001271,22.0593455 L66.3001271,6.59217531 Z M60.5510273,0.911229417 L63.4277882,0.911229417 L63.4277882,22.0593455 L60.5510273,22.0593455 L60.5510273,0.911229417 Z M53.2940231,0.911229417 L49.7534699,0.911229417 L43.9390226,22.0318187 L43.9311612,22.0593455 L46.8039915,22.0593455 L48.3482545,16.4481656 L54.7041519,16.4671495 L56.2400622,22.0432091 L56.2439929,22.0593455 L59.1163318,22.0593455 L53.2989365,0.927365771 L53.2940231,0.911229417 Z M53.9416014,13.6964426 L49.1058916,13.6964426 L51.5237465,4.91399447 L53.9416014,13.6964426 Z M172.611061,17.1705047 C172.611061,18.6838176 171.341019,19.9106001 169.774344,19.9106001 C168.207668,19.9106001 166.937627,18.6838176 166.937627,17.1705047 L166.937627,6.59170071 L164.060374,6.59170071 L164.060374,17.6237464 C164.061681,19.1445546 164.811062,20.5742735 166.07926,21.4755115 C167.347458,22.3767494 168.983556,22.6422575 170.487024,22.1908093 C170.762242,22.1121561 171.028063,22.0055679 171.280037,21.8728282 C171.718875,21.6543482 172.121463,21.3737697 172.47447,21.0403822 L172.598778,20.9241055 L172.598778,22.0593455 L175.500105,22.0593455 L175.500105,6.59217531 L172.611061,6.59217531 L172.611061,17.1705047 Z M66.3001271,0.911229417 L69.1768881,0.911229417 L69.1768881,3.69095374 L66.3001271,3.69095374 L66.3001271,0.911229417 Z M78.5137093,6.57888655 C77.2179922,6.57689771 75.9736469,7.06815196 75.0502955,7.94620527 L74.9269706,8.06248194 L74.9269706,0.91360241 L72.049227,0.91360241 L72.049227,22.0617185 L74.9269706,22.0617185 L74.9269706,20.9255293 L75.0502955,21.041806 C76.4742443,22.3896771 78.5962198,22.7810874 80.434153,22.0348888 C82.2720861,21.2886901 83.4673823,19.5504714 83.4668481,17.6246956 L83.4668481,11.3633156 C83.4633284,8.72243472 81.2477138,6.58249882 78.5137093,6.57936115 L78.5137093,6.57888655 Z M80.6264457,11.8716107 L80.6264457,17.1168751 C80.6264457,18.6342507 79.3529945,19.8643267 77.7821128,19.8643267 C76.2112312,19.8643267 74.9377799,18.6342507 74.9377799,17.1168751 L74.9377799,11.8716107 C74.9377799,10.3542351 76.2112312,9.12415913 77.7821128,9.12415913 C79.3529945,9.12415913 80.6264457,10.3542351 80.6264457,11.8716107 L80.6264457,11.8716107 Z M105.30763,6.57698816 C104.012111,6.57479259 102.767898,7.0658938 101.844707,7.94383228 L101.720891,8.06010895 L101.720891,0.912178614 L98.8431474,0.912178614 L98.8431474,22.0602947 L101.720891,22.0602947 L101.720891,20.9241055 L101.844707,21.0408568 C103.268489,22.389207 105.390723,22.7809162 107.228866,22.0346322 C109.067009,21.2883483 110.262265,19.5497421 110.26126,17.6237464 L110.26126,11.3623664 C110.25774,8.72130049 108.041826,6.58128817 105.30763,6.57841195 L105.30763,6.57698816 Z M107.420366,11.8692378 L107.420366,17.1145021 C107.420366,18.6317467 106.147025,19.8617164 104.576279,19.8617164 C103.005533,19.8617164 101.732192,18.6317467 101.732192,17.1145021 L101.732192,11.8692378 C101.732192,10.3521242 103.005423,9.12226074 104.576033,9.12226074 C106.146644,9.12226074 107.419875,10.3521242 107.419875,11.8692378 L107.420366,11.8692378 Z M186.121274,0.911229417 L186.121274,8.06010895 L185.997949,7.94383228 C184.574,6.59596113 182.452024,6.2045508 180.614091,6.95074946 C178.776158,7.69694812 177.580862,9.43516683 177.581396,11.3609426 L177.58287,17.6256448 L177.579431,17.6413066 C177.58722,19.5638802 178.785771,21.2951623 180.622216,22.0365449 C182.458661,22.7779276 184.576159,22.3853527 185.997949,21.0399076 L186.121274,20.9236309 L186.121274,22.0593455 L189,22.0593455 L189,0.911229417 L186.121274,0.911229417 Z M186.109973,11.8697124 L186.109973,17.1140275 C186.109973,18.6312721 184.836632,19.8612418 183.265886,19.8612418 C181.69514,19.8612418 180.421799,18.6312721 180.421799,17.1140275 L180.421799,11.8697124 C180.421799,10.3524678 181.69514,9.12249804 183.265886,9.12249804 C184.836632,9.12249804 186.109973,10.3524678 186.109973,11.8697124 L186.109973,11.8697124 Z M96.7795444,11.8251001 C96.7696891,11.6442376 96.7503384,11.4639747 96.721567,11.2850068 L96.7068269,11.2071726 C96.5632329,10.3736346 96.2264689,9.5822224 95.7217021,8.89208039 C94.7370745,7.53502324 93.1646056,6.68677649 91.4520091,6.58885312 C91.3407245,6.58310828 91.2293341,6.57946899 91.117902,6.57792031 C88.3532416,6.57135177 85.9785256,8.4737912 85.4739476,11.0994387 L85.4690343,11.1255417 L88.2863438,11.1255417 L88.2892918,11.1079815 C88.5685233,9.74811211 89.856441,8.80478623 91.2873848,8.91205021 C92.7183286,9.0193142 93.8401603,10.1432756 93.8988528,11.5284759 L93.9022921,12.8269778 L89.819306,12.8269778 C87.3278475,12.8253638 85.2236312,14.6131239 84.907316,17.0002465 C84.5910008,19.3873692 86.1612307,21.6294227 88.5727915,22.2339978 L88.645509,22.2525071 C88.8492287,22.3016955 89.0560172,22.3381569 89.2645899,22.3616648 L89.336816,22.3702076 C89.584836,22.396344 89.8341522,22.4093358 90.0836438,22.4091247 C90.6696256,22.4200501 91.25351,22.3382882 91.812157,22.1670794 C92.5509576,21.9411019 93.2243689,21.5504273 93.7779846,21.0266188 L93.9018008,20.9098675 L93.9018008,22.0455821 L96.7795444,22.0455821 L96.7795444,20.1965457 L96.7795444,11.8251001 Z M90.3548602,14.9360943 L93.8624941,14.9360943 L93.8624941,16.8909661 C93.8555969,18.375633 92.7616711,19.6478875 91.2520362,19.9269737 C91.0420234,19.9735436 90.8273022,19.9974202 90.6118279,19.9981635 C90.0988244,19.9950681 89.5961367,19.8586769 89.1564964,19.6032974 C89.0273458,19.5378619 88.9043708,19.4616354 88.7889785,19.3754901 C88.6234795,19.2509603 88.4740306,19.1077171 88.3438299,18.9488259 L88.3138585,18.9118072 C87.9714561,18.4840822 87.7852215,17.9589267 87.7842004,17.4182452 C87.7860961,16.0477798 88.9360685,14.9374015 90.3548602,14.9360943 L90.3548602,14.9360943 Z M123.609332,11.8388634 C123.599479,11.6580008 123.580129,11.4777377 123.551355,11.2987702 L123.536123,11.2214106 C123.392677,10.3879122 123.056082,9.59650288 122.55149,8.90631835 C121.566965,7.54908142 119.99448,6.70065112 118.281797,6.60261648 C118.170509,6.59702992 118.059119,6.59354887 117.94769,6.59215706 C115.182844,6.58536023 112.807855,8.48785275 112.303244,11.1136767 L112.298331,11.1397796 L115.115149,11.1397796 L115.11908,11.1217449 C115.399249,9.76277221 116.686806,8.82055358 118.117014,8.9278928 C119.547222,9.03523202 120.668656,10.158249 120.728149,11.5427139 L120.73208,12.8412158 L116.649094,12.8412158 C114.158369,12.8405235 112.055241,14.6280375 111.739003,17.0144553 C111.422765,19.400873 112.991976,21.6424428 115.402579,22.2477611 L115.475297,22.2667451 C115.679019,22.3159232 115.885807,22.3523845 116.094378,22.3759028 L116.166604,22.3844455 C116.414624,22.410582 116.66394,22.4235738 116.913432,22.4233626 C117.499413,22.4342881 118.083298,22.3525262 118.641945,22.1813173 C119.380792,21.955202 120.054208,21.5643624 120.607772,21.0403822 L120.731589,20.9241055 L120.731589,22.0593455 L123.609332,22.0593455 L123.609332,20.2103091 L123.609332,11.8388634 Z M117.184648,14.9498576 L120.692282,14.9498576 L120.692282,16.9052041 C120.68515,18.3896921 119.591278,19.6616854 118.081824,19.9407371 C117.871811,19.987307 117.65709,20.0111835 117.441616,20.0119269 C116.928658,20.0089748 116.425974,19.8727485 115.986284,19.6175354 C115.857132,19.552102 115.734157,19.4758754 115.618766,19.389728 C115.453239,19.2650507 115.303788,19.1216471 115.173618,18.9625892 L115.143646,18.9260451 C114.801347,18.4984489 114.615118,17.9734766 114.613988,17.4329578 C114.615343,16.0621217 115.765473,14.9511658 117.184648,14.9498576 L117.184648,14.9498576 Z" id="Shape"></path>
        </g>
        <g id="Group" transform="translate(248.000000, 31.000000)">
            <g id="g12" transform="translate(78.500000, 29.500000) scale(-1, 1) rotate(-180.000000) translate(-78.500000, -29.500000) ">
                <polyline id="path14" fill="#F68D11" fill-rule="nonzero" points="43.6375409 38.6551724 34.512931 41.7068966 34.512931 54.9310345 43.6487069 52.2183908 43.6375409 38.6551724"></polyline>
                <polyline id="path16" fill="#F68D11" fill-rule="nonzero" points="46.0172414 52.2183908 55.1530172 54.9310345 55.1212112 41.7160517 46.0172414 38.6551724 46.0172414 52.2183908"></polyline>
                <polyline id="path18" fill="#F68D11" fill-rule="nonzero" points="53.2920259 56.3629713 44.7774828 59 36.3739224 56.3629713 44.7896638 54.1023218 53.2920259 56.3629713"></polyline>
                <polyline id="path20" fill="#F68D11" fill-rule="nonzero" points="66.6461616 38.6551724 57.5215517 41.7068966 57.5215517 54.9310345 66.6573276 52.2183908 66.6461616 38.6551724"></polyline>
                <polyline id="path22" fill="#F68D11" fill-rule="nonzero" points="69.0258621 52.2183908 78.1616379 54.9310345 78.1298319 41.7160517 69.0258621 38.6551724 69.0258621 52.2183908"></polyline>
                <polyline id="path24" fill="#F68D11" fill-rule="nonzero" points="76.3006466 56.3629713 67.7861034 59 59.3825431 56.3629713 67.7982845 54.1023218 76.3006466 56.3629713"></polyline>
                <polyline id="path26" fill="#F68D11" fill-rule="nonzero" points="9.13577586 32.8908046 0 35.6034483 0 22.3793103 9.12467759 19.3275862 9.13577586 32.8908046"></polyline>
                <polyline id="path28" fill="#F68D11" fill-rule="nonzero" points="11.5043103 32.8908046 20.6400862 35.6034483 20.6083817 22.3881943 11.5043103 19.3275862 11.5043103 32.8908046"></polyline>
                <polyline id="path30" fill="#F68D11" fill-rule="nonzero" points="18.7790948 37.0353851 10.2645179 39.6724138 1.86099138 37.0353851 10.2768343 34.7747356 18.7790948 37.0353851"></polyline>
                <polyline id="path32" fill="#F68D11" fill-rule="nonzero" points="32.1332983 19.3275862 23.0086207 22.3793103 23.0086207 35.6034483 32.1443966 32.8908046 32.1332983 19.3275862"></polyline>
                <polyline id="path34" fill="#F68D11" fill-rule="nonzero" points="34.512931 32.8908046 43.6487069 35.6034483 43.6169009 22.3881943 34.512931 19.3275862 34.512931 32.8908046"></polyline>
                <polyline id="path36" fill="#F68D11" fill-rule="nonzero" points="41.7877155 37.0353851 33.2731386 39.6724138 24.8696121 37.0353851 33.285455 34.7747356 41.7877155 37.0353851"></polyline>
                <polyline id="path38" fill="#F68D11" fill-rule="nonzero" points="20.6289879 0 11.5043103 3.05172414 11.5043103 16.2758621 20.6400862 13.5632184 20.6289879 0"></polyline>
                <polyline id="path40" fill="#F68D11" fill-rule="nonzero" points="23.0086207 13.5632184 32.1443966 16.2758621 32.112692 3.06059787 23.0086207 0 23.0086207 13.5632184"></polyline>
                <polyline id="path42" fill="#F68D11" fill-rule="nonzero" points="30.2834052 17.7077989 21.7688282 20.3448276 13.3653017 17.7077989 21.7811446 15.4471155 30.2834052 17.7077989"></polyline>
                <path d="M61.0371336,11.6897989 L60.3658233,11.6874253 C60.1194957,11.6874253 59.8054957,11.5206655 59.7283491,11.2503167 L57.6917478,4.06008161 L55.6774784,11.2346851 C55.6169116,11.4595971 55.4054353,11.6874253 55.1178276,11.6874253 L54.3230151,11.6874253 C54.0367608,11.6874253 53.8279914,11.4565454 53.7701315,11.2300397 L51.8962823,4.13003391 L49.9601746,11.252046 C49.8837047,11.5124598 49.5619224,11.6874253 49.3095043,11.6874253 L48.3434806,11.6891207 C48.1370797,11.6891207 47.9452284,11.6002477 47.8423664,11.4572236 C47.7726638,11.3602466 47.7533772,11.2503167 47.7855216,11.154696 L50.7766422,0.54292546 C50.8426228,0.319742362 51.0354892,0.094968977 51.3176832,0.094968977 L52.2782931,0.094968977 C52.5378168,0.094968977 52.7651961,0.284509868 52.8308384,0.553389483 L54.6718664,7.62215575 L56.6753082,0.545309195 C56.7355366,0.328616776 56.9294181,0.094968977 57.2129655,0.094968977 L58.1580108,0.094968977 C58.4209181,0.094968977 58.6422069,0.278019529 58.7071724,0.546238276 L61.5862953,11.1503218 C61.6201315,11.2524529 61.6005065,11.3659431 61.531819,11.4615977 C61.4306487,11.6023839 61.2411659,11.6897989 61.0371336,11.6897989" id="path44" fill="#100F0D" fill-rule="nonzero"></path>
                <path d="M69.3432457,7.18440287 L64.2684914,7.18440287 C64.3852263,8.61159253 65.3099698,10.0913397 66.8765862,10.1483052 C68.5436961,10.0937471 69.3063642,8.64787414 69.3432457,7.18440287 Z M66.8728642,11.7656851 C63.4449181,11.7656851 61.8837155,8.72867701 61.8837155,5.9071546 C61.8837155,2.38574977 63.8245603,0.110598552 66.8282004,0.110598552 C68.9778147,0.110598552 70.6165022,1.19896816 71.3243556,3.1005992 C71.3622522,3.2093423 71.3504095,3.32735925 71.2911961,3.43318966 C71.219125,3.56166724 71.0824267,3.65861034 70.9206897,3.6942477 L69.9692155,3.87663908 C69.7137522,3.91678621 69.421069,3.76511552 69.3242974,3.54512011 C68.8620948,2.48853184 68.0195733,1.88904776 66.9621918,1.85779132 C65.9447371,1.88931563 65.0105194,2.49502184 64.5824914,3.39995977 C64.2346552,4.13915517 64.1832241,4.86780517 64.177472,5.60872989 L71.0668621,5.61110345 C71.2113427,5.61110345 71.3608987,5.67481667 71.4664677,5.782 C71.5547802,5.87087299 71.6028276,5.98131149 71.6018283,6.09191954 C71.5848944,8.83504655 70.3339698,11.7656851 66.8728642,11.7656851" id="path46" fill="#100F0D" fill-rule="nonzero"></path>
                <path d="M80.077444,5.89020057 C80.077444,5.24052241 79.9600323,1.99646845 77.6601853,1.91342086 C76.8893966,1.94295816 76.1104871,2.39700724 75.6753534,3.06828144 C75.3549246,3.57597644 75.1678103,4.27783908 75.1197629,5.14622414 L75.1197629,7.05487414 C75.1573211,8.51702299 76.18425,10.1215517 77.6527414,10.1836713 C79.9603707,10.0924247 80.077444,6.59141897 80.077444,5.89020057 Z M78.0208793,11.8641201 L77.8385022,11.8641201 C76.7005905,11.8641201 75.8062996,11.3904586 75.1197629,10.4195695 L75.1187478,14.893058 C75.1187478,15.1443167 74.8599009,15.373196 74.5739849,15.373196 L73.5832608,15.373196 C73.3244138,15.373196 73.0347759,15.1677471 73.0340991,14.893058 L73.0340991,0.928365 C73.0351142,0.674715862 73.2939612,0.444249655 73.5795388,0.444249655 L73.8705302,0.445836552 C74.1452802,0.445836552 74.3408534,0.667696897 74.4068341,0.873793391 L74.7167737,1.85951046 C75.4368082,0.834853391 76.5212586,0.232985236 77.6818405,0.232985236 L77.8594806,0.232985236 C80.9165819,0.232985236 82.2849181,3.21278736 82.2849181,6.16583908 C82.2849181,7.63578678 81.9232091,9.04127529 81.2928405,10.0218282 C80.564347,11.1581207 79.3103772,11.8641201 78.0208793,11.8641201" id="path48" fill="#100F0D" fill-rule="nonzero"></path>
                <path d="M93.1331444,6.20449425 C92.488903,6.66835632 91.7143922,6.82331609 90.938528,6.97858103 L89.45075,7.25499943 C88.3832177,7.43088046 87.7653685,7.71777644 87.7653685,8.66177644 C87.7653685,9.65969023 88.7973728,10.0411557 89.6723772,10.0648575 C90.7409246,10.0378328 91.5445345,9.56006839 91.9346659,8.7197931 C92.0273772,8.52177011 92.2327629,8.3885454 92.4462694,8.3885454 C92.4828125,8.3885454 92.5200323,8.39264828 92.555222,8.40031149 L93.4836875,8.60589598 C93.6352737,8.63939713 93.7767091,8.74349483 93.8525022,8.87888966 C93.913069,8.98631034 93.9262651,9.10363218 93.8900603,9.20840805 C93.3219504,10.8668506 91.8795129,11.7433057 89.6974159,11.7433057 C87.7257802,11.7389316 85.6187996,10.8603741 85.6187996,8.40655057 C85.6187996,6.72942471 86.6704289,5.66437299 88.7466185,5.24052241 L90.4120366,4.92249885 C91.3262909,4.74712644 92.2611853,4.43520632 92.2611853,3.45146609 C92.2611853,1.99514264 90.5700517,1.8466627 90.0587866,1.83606644 C88.9117392,1.86083626 87.6131056,2.37356322 87.2977522,3.45929885 C87.2344784,3.69797759 86.9346897,3.86683966 86.6717823,3.81201034 L85.7006832,3.6112069 C85.5545108,3.58035057 85.4208578,3.48510287 85.3430345,3.35649983 C85.2777306,3.24934362 85.2591207,3.12934305 85.2892349,3.0198031 C85.7903491,1.21830592 87.5258082,0.131923661 89.9315625,0.113644851 L89.9850237,0.113247448 C92.1336228,0.113247448 94.4294095,1.03525672 94.4294095,3.62168448 C94.4294095,4.67452931 93.9567177,5.61588448 93.1331444,6.20449425" id="path50" fill="#100F0D" fill-rule="nonzero"></path>
                <path d="M102.955119,7.17392529 L97.8790108,7.17392529 C97.995069,8.60243736 98.9198125,10.0828626 100.486429,10.1371833 C102.152862,10.0841851 102.916545,8.63848161 102.955119,7.17392529 Z M100.483722,11.7558856 C97.0550991,11.7558856 95.4935582,8.71874195 95.4935582,5.89735517 C95.4935582,2.37621144 97.4347414,0.101326736 100.43872,0.101326736 C102.588672,0.101326736 104.22736,1.18982655 104.93589,3.09106425 C104.973448,3.1999396 104.961606,3.31822103 104.902054,3.42430575 C104.829983,3.55291897 104.692946,3.64989598 104.531547,3.68485517 L103.57872,3.86724655 C103.355739,3.90352816 103.044784,3.78790172 102.935155,3.53532069 C102.472614,2.47939362 101.629754,1.87990954 100.573388,1.8473273 C99.5549181,1.87990954 98.6210388,2.4854869 98.1947026,3.39014339 C97.8461897,4.12762644 97.7944203,4.85692069 97.7893448,5.59960862 L104.678058,5.60130402 C104.821524,5.60130402 104.970065,5.66464425 105.075634,5.77111552 C105.164284,5.8603954 105.212332,5.97086782 105.211333,6.08212011 C105.195414,8.82497586 103.945504,11.7558856 100.483722,11.7558856" id="path52" fill="#100F0D" fill-rule="nonzero"></path>
                <path d="M111.716666,11.6267638 C111.582336,11.6415816 111.453082,11.6487362 111.32755,11.6487362 C110.171366,11.6487362 109.232412,11.0187925 108.580726,9.81532816 L108.583095,10.869258 C108.58208,11.1244839 108.32797,11.3487178 108.039347,11.3487178 L107.178892,11.3487178 C106.896698,11.3487178 106.647664,11.1235684 106.645634,10.8651552 L106.64428,0.627298851 C106.64428,0.370340287 106.893315,0.14477142 107.177539,0.14477142 L108.181459,0.145168822 C108.442675,0.145168822 108.736711,0.350602414 108.73908,0.627298851 L108.739756,5.7887477 C108.739756,6.63987356 108.818933,7.28107471 109.224629,8.03966552 C109.804244,9.12021322 110.613606,9.6502977 111.699071,9.65877471 C111.971114,9.66074138 112.209998,9.89877586 112.209998,10.1683109 L112.209998,11.125942 C112.209998,11.3765563 111.993108,11.5965517 111.716666,11.6267638" id="path54" fill="#100F0D" fill-rule="nonzero"></path>
                <path d="M122.256983,11.8278046 L121.4642,11.8274316 C121.215843,11.8274316 120.897444,11.6487362 120.820297,11.386627 L118.250437,3.29252552 L115.626101,11.378523 C115.548616,11.6470069 115.229541,11.8274316 114.97983,11.8274316 L113.84767,11.8284828 C113.639916,11.8284828 113.438929,11.7356425 113.336067,11.5921776 C113.267041,11.49615 113.248093,11.3872713 113.282267,11.2856828 L116.873981,0.608357816 C116.943006,0.397093736 117.12606,0.150202132 117.415698,0.150202132 L118.785726,0.150202132 C119.037129,0.150202132 119.243192,0.321729034 119.337595,0.609286897 L122.821371,11.2822241 C122.856222,11.3835753 122.837612,11.492827 122.768925,11.5891259 C122.665386,11.7339132 122.464737,11.8278046 122.256983,11.8278046" id="path56" fill="#100F0D" fill-rule="nonzero"></path>
                <path d="M124.861694,15.9320006 C124.131509,15.9320006 123.537683,15.3353207 123.537683,14.6011098 C123.537683,13.8670684 124.131509,13.2706259 124.861694,13.2706259 C125.592218,13.2706259 126.18672,13.8670684 126.18672,14.6011098 C126.18672,15.3353207 125.592218,15.9320006 124.861694,15.9320006" id="path58" fill="#100F0D" fill-rule="nonzero"></path>
                <path d="M125.406795,11.8928402 L124.319638,11.8939253 C124.023909,11.8939253 123.754573,11.6541615 123.754573,11.3913741 L123.749159,0.520807241 C123.749159,0.389281322 123.816832,0.258681431 123.933905,0.161725443 C124.041166,0.0736442069 124.178203,0.0227819684 124.315916,0.0227819684 L125.410856,0.0210600839 L125.411532,0.0210600839 C125.711659,0.02370915 125.975244,0.25695958 125.975244,0.520142644 L125.975244,11.3913741 C125.975244,11.6585356 125.709291,11.8928402 125.406795,11.8928402" id="path60" fill="#100F0D" fill-rule="nonzero"></path>
                <path d="M135.566793,4.52129885 L134.658968,4.51784023 C134.405534,4.51784023 134.193043,4.36525402 134.09864,4.10022874 C133.767045,2.66654908 133.015881,1.9236204 131.876955,1.89077029 C129.658653,1.95686385 129.486427,5.05535057 129.486427,6.00345345 C129.486427,7.89409828 130.139804,9.93437931 131.963914,9.9882931 C133.064944,9.95438506 133.865847,9.16324253 134.106084,7.87409253 C134.151425,7.61103391 134.353088,7.41195977 134.628515,7.37737356 L135.599953,7.3678454 C135.890267,7.39937989 136.117985,7.61951092 136.115955,7.8925046 C135.772179,10.2222247 134.161237,11.728081 132.008239,11.728081 L131.9338,11.7260805 L131.849547,11.728081 C128.718345,11.728081 127.316511,8.79954483 127.316511,5.89735517 C127.316511,3.23649586 128.498409,0.129539247 131.831953,0.129539247 L131.991659,0.129539247 C134.090858,0.129539247 135.675407,1.60414218 136.129151,3.99504598 C136.139302,4.10897701 136.100052,4.22287414 136.019522,4.31547701 C135.915306,4.43547759 135.74917,4.51241494 135.566793,4.52129885" id="path62" fill="#100F0D" fill-rule="nonzero"></path>
                <path d="M144.532711,7.17392529 L139.455927,7.17392529 C139.571985,8.60284425 140.497067,10.0828626 142.064698,10.1371833 C143.73147,10.0841851 144.494815,8.63848161 144.532711,7.17392529 Z M142.061315,11.7558856 C138.63303,11.7558856 137.071828,8.71874195 137.071828,5.89735517 C137.071828,2.37621144 139.013011,0.101326736 142.016989,0.101326736 C144.165927,0.101326736 145.803938,1.18916534 146.513144,3.09066414 C146.550026,3.20020408 146.537845,3.31888224 146.478631,3.42430575 C146.405545,3.55386839 146.272569,3.64857356 146.108463,3.68485517 L145.156989,3.86724655 C144.932994,3.90352816 144.623054,3.78790172 144.513425,3.53532069 C144.04953,2.47939362 143.206332,1.87990954 142.150304,1.84693057 C141.132172,1.87990954 140.198631,2.4854869 139.772295,3.39014339 C139.423444,4.12871149 139.371675,4.85800575 139.366261,5.59960862 L146.255651,5.60065977 C146.40047,5.60065977 146.550026,5.66464425 146.655933,5.77216667 C146.743907,5.86198908 146.791278,5.97259713 146.78963,6.08212011 C146.773683,8.82497586 145.523435,11.7558856 142.061315,11.7558856" id="path64" fill="#100F0D" fill-rule="nonzero"></path>
                <path d="M155.420188,6.20449425 C154.774931,6.66876322 153.999405,6.82358736 153.224894,6.97858103 L151.737116,7.25499943 C150.670599,7.43088046 150.053088,7.71777644 150.053088,8.66177644 C150.053088,9.94895977 151.647112,10.0565161 151.958067,10.0648575 C153.027629,10.0378328 153.831239,9.56006839 154.220694,8.71938621 C154.314082,8.52139713 154.520144,8.3885454 154.733989,8.3885454 C154.770871,8.3885454 154.807752,8.39264828 154.843619,8.40031149 L155.771407,8.60589598 C155.922994,8.63939713 156.064091,8.74390172 156.139884,8.87912701 C156.200112,8.98668333 156.213308,9.10363218 156.177103,9.20840805 C155.60967,10.8668506 154.166894,11.7433057 151.983782,11.7433057 C150.012823,11.7389316 147.906519,10.8603741 147.906519,8.40655057 C147.906519,6.72901782 148.95781,5.66396609 151.033662,5.24052241 L152.699756,4.92249885 C153.614011,4.74712644 154.548905,4.43520632 154.548905,3.45146609 C154.548905,1.99514264 152.857772,1.8466627 152.346506,1.83606644 C151.283034,1.85884925 149.921804,2.29899264 149.58581,3.45794253 C149.524228,3.69797759 149.224778,3.86656839 148.957134,3.81201034 L147.987726,3.6112069 C147.840877,3.57994368 147.706886,3.48405172 147.629062,3.35517402 C147.564435,3.24775672 147.545825,3.12867845 147.576278,3.0198031 C148.076039,1.21830592 149.811159,0.131923661 152.217252,0.113644851 L152.270713,0.113247448 C154.419651,0.113247448 156.715776,1.03525672 156.715776,3.62168448 C156.715776,4.67520747 156.243422,5.6168 155.420187,6.20449425" id="path66" fill="#100F0D" fill-rule="nonzero"></path>
                <path d="M111.224687,32.8223103 L111.224687,35.2908161 C111.226041,35.6651609 111.509588,35.9164195 111.849981,35.9160805 L122.885659,35.9164195 C123.237894,35.9164195 123.522119,35.6590575 123.522119,35.2935287 L123.522119,33.1766494 C123.518735,32.8223103 123.219961,32.3589908 122.690763,31.6232201 L116.974812,23.4443621 C119.095666,23.4948172 121.341037,23.1765563 123.268347,22.0906851 C123.703819,21.8459368 123.819539,21.4827477 123.855067,21.1281713 L123.855067,18.4941943 C123.855067,18.1310052 123.458506,17.7112575 123.042321,17.9299305 C119.645504,19.7134259 115.137506,19.9081259 111.380672,17.9092805 C110.997308,17.7041029 110.595334,18.1173741 110.595334,18.4805632 L110.595334,20.9833839 C110.595334,21.382719 110.603455,22.0687126 111.005767,22.6797017 L117.629205,32.2004707 L111.863177,32.2017931 C111.510265,32.2017931 111.228071,32.4534586 111.224688,32.8223103" id="path68" fill="#100F0D"></path>
                <path d="M70.9697522,17.4104592 L67.6115086,17.4104592 C67.2924332,17.4313805 67.0369698,17.6725684 67.0115927,17.9801483 L67.0139612,35.2487701 C67.0139612,35.5942931 67.3042759,35.8703046 67.6615862,35.8703046 L70.7883901,35.872 C71.1159246,35.8536897 71.3778168,35.6061609 71.4001487,35.2921724 L71.4001487,33.0358293 L71.4624073,33.0358293 C72.2765065,35.2172356 73.8123319,36.2331207 75.8804009,36.2331207 C77.9799375,36.2331207 79.2965043,35.2172356 80.2368125,33.0358293 C81.0522651,35.2172356 82.9007371,36.2331207 84.8767716,36.2331207 C86.2870647,36.2331207 87.8208599,35.6526149 88.7611681,34.3451207 C89.8266703,32.8908046 89.6070733,30.7845385 89.6070733,28.9304466 L89.6050431,18.032604 C89.6050431,17.6880644 89.3150668,17.4104592 88.9580948,17.4104592 L85.6049267,17.4104592 C85.2672414,17.4313805 85.0016272,17.7013224 85.0016272,18.0310103 L85.0016272,27.186454 C85.0016272,27.9127983 85.0635474,29.730473 84.9072241,30.4202983 C84.6558211,31.584158 83.9033039,31.9093362 82.9332198,31.9093362 C82.1174289,31.9093362 81.270847,31.3642644 80.926056,30.4940483 C80.5816034,29.6205431 80.6134095,28.1671086 80.6134095,27.186454 L80.6134095,18.032604 C80.6134095,17.6880644 80.3234332,17.4104592 79.9657845,17.4104592 L76.6119397,17.4104592 C76.2759461,17.4313805 76.0096552,17.7013224 76.0096552,18.0310103 L76.0052565,27.186454 C76.0052565,29.1125667 76.3195948,31.9457534 73.9382026,31.9457534 C71.5250043,31.9457534 71.619069,29.1847569 71.619069,27.186454 L71.6170388,18.032604 C71.6183922,17.6880644 71.3280776,17.4104592 70.9697522,17.4104592" id="path70" fill="#100F0D"></path>
                <path d="M133.053778,32.7096 C130.576629,32.7096 130.420628,29.3304598 130.420628,27.2220575 C130.420628,25.1148759 130.389515,20.6093443 133.023325,20.6093443 C135.624991,20.6093443 135.749847,24.2432017 135.749847,26.4595333 C135.749847,27.9127983 135.687927,29.6565534 135.249071,31.0375264 C134.871797,32.2371592 134.120295,32.7096 133.053778,32.7096 L133.053778,32.7096 Z M133.023325,36.2331207 C138.006045,36.2331207 140.701776,31.9457534 140.701776,26.4970356 C140.701776,21.2268437 137.723175,17.047677 133.023325,17.047677 C128.133655,17.047677 125.469054,21.336231 125.469054,26.6778333 C125.469054,32.0556833 128.163769,36.2331207 133.023325,36.2331207" id="path72" fill="#100F0D"></path>
                <path d="M147.164491,17.4104592 L143.819106,17.4104592 C143.482097,17.4313805 143.216483,17.7013224 143.216483,18.0310103 L143.211746,35.307431 C143.239491,35.6220977 143.518302,35.8703046 143.85531,35.8703046 L146.97061,35.872 C147.264308,35.8557241 147.505222,35.6556667 147.566804,35.3881322 L147.566804,32.7457799 L147.630416,32.7457799 C148.569371,35.1080517 149.886614,36.2331207 152.204733,36.2331207 C153.709429,36.2331207 155.183334,35.6895747 156.122966,34.1993161 C157,32.8190213 157,30.4940483 157,28.822246 L157,17.9549885 C156.962442,17.648731 156.69006,17.4104592 156.358466,17.4104592 L152.991086,17.4104592 C152.68047,17.4307362 152.430759,17.6606667 152.3932,17.9549885 L152.3932,27.33175 C152.3932,29.2211741 152.613136,31.9834931 150.292987,31.9834931 C149.47855,31.9834931 148.727386,31.4371328 148.350789,30.6024184 C147.880127,29.5489971 147.817869,28.4953385 147.817869,27.33175 L147.817869,18.032604 C147.812116,17.6880644 147.521802,17.4104592 147.164491,17.4104592" id="path74" fill="#100F0D"></path>
                <path d="M105.812248,17.4541667 C105.589606,17.2550925 105.270869,17.2418345 105.019804,17.375873 C103.904901,18.3046483 103.704591,18.7352466 103.0952,19.6185851 C101.252142,17.7373667 99.9470797,17.1731029 97.5606121,17.1731029 C94.7329203,17.1731029 92.5349203,18.9213678 92.5349203,22.4173213 C92.5349203,25.1478345 94.0105172,27.0052494 96.1147909,27.9162569 C97.9365323,28.7176057 100.481015,28.863546 102.42795,29.0827615 L102.42795,29.519192 C102.42795,30.3198966 102.490547,31.2671856 102.018871,31.9587402 C101.611821,32.5778333 100.826483,32.8321437 100.134532,32.8321437 C98.8538319,32.8321437 97.7159203,32.1742259 97.4357565,30.811292 C97.3789116,30.5086287 97.1569461,30.2079661 96.8527586,30.1933856 L93.5994073,30.5466397 C93.3239806,30.6086236 93.0191164,30.8287885 93.0986315,31.2490448 C93.8464116,35.206046 97.4113944,36.4016437 100.606547,36.4016437 C102.238806,36.4016437 104.375562,35.964908 105.663369,34.7269253 C107.295966,33.1967569 107.138627,31.1576626 107.138627,28.9360075 L107.138627,23.6942983 C107.138627,22.1175741 107.792681,21.4255109 108.407485,20.5757075 C108.620315,20.2692126 108.668362,19.9060236 108.394966,19.6812471 C107.709444,19.1054546 106.491002,18.0458282 105.821384,17.4467408 L105.812248,17.4541667 L105.812248,17.4541667 Z M102.42795,25.6585914 C102.42795,24.3472994 102.45908,23.2537649 101.799274,22.0893626 C101.265338,21.1416667 100.416726,20.5595333 99.4743879,20.5595333 C98.1879353,20.5595333 97.434403,21.5424598 97.434403,22.9998615 C97.434403,25.8648201 99.9998642,26.3864276 102.42795,26.3864276 L102.42795,25.6585914" id="path76" fill="#100F0D"></path>
                <path d="M61.8001401,17.4541667 C61.5781746,17.2550925 61.257069,17.2418345 61.0060043,17.375873 C59.8911013,18.3046483 59.6914677,18.7352466 59.0814009,19.6185851 C57.2393578,17.7373667 55.9336185,17.1731029 53.5457974,17.1731029 C50.7191207,17.1731029 48.520444,18.9213678 48.520444,22.4173213 C48.520444,25.1478345 49.9973944,27.0052494 52.1016681,27.9162569 C53.9237478,28.7176057 56.4678922,28.863546 58.4148276,29.0827615 L58.4148276,29.519192 C58.4148276,30.3198966 58.4781013,31.2671856 58.0064246,31.9587402 C57.5983599,32.5778333 56.8123448,32.8321437 56.1224246,32.8321437 C54.8417241,32.8321437 53.7024591,32.1742259 53.4233103,30.811292 C53.3651121,30.5086287 53.1441616,30.2079661 52.8403125,30.1933856 L49.5856078,30.5466397 C49.3108578,30.6086236 49.0056552,30.8287885 49.0844935,31.2490448 C49.8322737,35.206046 53.3975948,36.4016437 56.5924095,36.4016437 C58.2266983,36.4016437 60.3617629,35.964908 61.6499073,34.7269253 C63.283181,33.1967569 63.1255043,31.1576626 63.1255043,28.9360075 L63.1255043,23.6942983 C63.1255043,22.1175741 63.7798966,21.4255109 64.3930086,20.5757075 C64.6068534,20.2692126 64.6552392,19.9060236 64.3825194,19.6812471 C63.6963211,19.1054546 62.4772026,18.0458282 61.8079224,17.4467408 L61.8001401,17.4541667 Z M58.4148276,25.6585914 C58.4148276,24.3472994 58.4456185,23.2537649 57.7871659,22.0893626 C57.253569,21.1416667 56.4042802,20.5595333 55.4632953,20.5595333 C54.1741358,20.5595333 53.4209418,21.5424598 53.4209418,22.9998615 C53.4209418,25.8648201 55.9857263,26.3864276 58.4148276,26.3864276 L58.4148276,25.6585914" id="path78" fill="#100F0D"></path>
            </g>
        </g>
        <g id="microsoft-azure" transform="translate(21.000000, 129.000000)" fill-rule="nonzero">
            <g id="Group" transform="translate(77.500000, 22.000000) scale(-1, 1) rotate(-180.000000) translate(-77.500000, -22.000000) ">
                <path d="M65.4885814,31.3606374 L64.6595116,29.0247692 L64.6143333,29.0247692 C64.4684651,29.5747692 64.2209457,30.3483956 63.8357287,31.3352527 L59.3947984,42.5218901 L55.0658527,42.5218901 L55.0658527,24.7333187 L57.9245814,24.7333187 L57.9245814,35.669978 C57.9245814,36.343033 57.9077597,37.1604176 57.8796434,38.0936044 C57.8683488,38.5672088 57.8123566,38.9431429 57.797938,39.2303516 L57.8628217,39.2303516 C57.9720251,38.7166577 58.1070931,38.2088754 58.2675039,37.708967 L63.5829225,24.7335604 L65.5815814,24.7335604 L70.8604729,37.8291209 C70.9753411,38.126 71.1075116,38.7086374 71.2228605,39.2303516 L71.2846202,39.2303516 C71.2197364,37.935011 71.1582171,36.7532967 71.1524496,36.0362418 L71.1524496,24.7335604 L74.1966977,24.7335604 L74.1966977,42.5218901 L70.0366899,42.5218901 L65.4885814,31.3606374 Z" id="Path" fill="#706D6E"></path>
                <polygon id="Path" fill="#706D6E" points="77.0693643 24.7335604 80.0544961 24.7335604 80.0544961 37.480022 77.0693643 37.480022"></polygon>
                <path d="M78.5929302,42.8978242 C78.1010155,42.8978242 77.6708605,42.731011 77.3224109,42.3973846 C76.9681938,42.0637582 76.7910853,41.6423736 76.7910853,41.1489451 C76.7910853,40.6596264 76.9681938,40.2481538 77.3166434,39.9203297 C77.665093,39.5963736 78.0952481,39.4339121 78.5926899,39.4339121 C79.0932558,39.4339121 79.5234109,39.5963736 79.8776279,39.9203297 C80.2260775,40.2481538 80.4058295,40.6596264 80.4058295,41.1489451 C80.4058295,41.6266593 80.2316047,42.041033 79.8860388,42.3845714 C79.542876,42.7254505 79.1129612,42.8978242 78.5929302,42.8978242" id="Path" fill="#706D6E"></path>
                <path d="M90.6065116,37.6098462 C90.0574598,37.72643 89.4979824,37.7861335 88.9368372,37.788022 C87.5735581,37.788022 86.3535039,37.4925934 85.3136822,36.9097143 C84.2765039,36.3273187 83.4724264,35.4961538 82.9242791,34.4384615 C82.3790155,33.3824615 82.1007364,32.1507033 82.1007364,30.7721978 C82.1007364,29.568967 82.3734884,28.4663077 82.8992868,27.4917802 C83.4303721,26.5150769 84.1808605,25.7511209 85.1310465,25.2255385 C86.0809922,24.6951209 87.1744031,24.4265275 88.3915736,24.4265275 C89.8084419,24.4265275 91.0114341,24.7108352 91.9837287,25.2707473 L92.028907,25.2934725 L92.028907,28.0434725 L91.9025039,27.9516044 C91.4547204,27.6266867 90.9623899,27.3689398 90.440938,27.1864396 C89.9148992,26.9998022 89.4342791,26.9093846 89.0127752,26.9093846 C87.8405426,26.9093846 86.8990078,27.2754066 86.2213333,28.0026154 C85.5412558,28.7278901 85.1954496,29.750044 85.1954496,31.0323297 C85.1954496,32.3274286 85.549907,33.3725495 86.2693953,34.1461758 C86.9749457,34.9161758 87.9167209,35.3051648 89.0605969,35.3051648 C90.0415426,35.3051648 90.9972558,34.972989 91.9025039,34.3110549 L92.028907,34.2194286 L92.028907,37.1164176 L91.9837287,37.1391429 C91.6436899,37.3301319 91.1772481,37.4882418 90.6065116,37.6098462" id="Path" fill="#706D6E"></path>
                <path d="M100.427504,37.7021978 C99.6741318,37.7021978 99.0053488,37.459956 98.4348527,36.9849011 C97.929,36.564967 97.5663721,35.9895824 97.2878527,35.2756703 L97.257093,35.2756703 L97.257093,37.4797802 L94.2774884,37.4797802 L94.2774884,24.7333187 L97.2573333,24.7333187 L97.2573333,31.2530549 C97.2573333,32.3658681 97.5043721,33.2734286 97.9991705,33.961956 C98.480031,34.642022 99.1317519,34.9872527 99.9274186,34.9872527 C100.194403,34.9872527 100.492388,34.9418022 100.821372,34.8528352 C101.144109,34.7665275 101.37793,34.6690989 101.515388,34.569978 L101.642271,34.4795604 L101.642271,37.503956 L101.597093,37.5264396 C101.318574,37.6439341 100.922302,37.701956 100.427504,37.701956" id="Path" fill="#706D6E"></path>
                <path d="M110.895411,27.9728791 C110.333085,27.2671868 109.490078,26.9096264 108.388016,26.9096264 C107.294605,26.9096264 106.429008,27.2727473 105.824628,27.9927033 C105.20631,28.717978 104.897031,29.7502857 104.897031,31.0581978 C104.897031,32.4108352 105.20631,33.4685275 105.824628,34.2037143 C106.429008,34.9362418 107.28331,35.3051648 108.363023,35.3051648 C109.408372,35.3051648 110.24345,34.9517143 110.839419,34.2520659 C111.437791,33.5478242 111.744186,32.5002857 111.744186,31.1314505 C111.744186,29.7502857 111.457496,28.6836484 110.895411,27.9728791 M108.517302,37.7906813 C106.434775,37.7906813 104.776155,37.172989 103.592628,35.9569451 C102.409341,34.7457363 101.808085,33.0614066 101.808085,30.9602857 C101.808085,28.9640879 102.395403,27.3590549 103.54793,26.1884615 C104.700457,25.0193187 106.274488,24.4265275 108.216915,24.4265275 C110.237682,24.4265275 111.87107,25.0488132 113.054116,26.2832308 C114.232116,27.5145055 114.833612,29.1770769 114.833612,31.2305714 C114.833612,33.2577143 114.274411,34.8755604 113.161054,36.0362418 C112.053225,37.2015165 110.490729,37.7906813 108.517302,37.7906813" id="Shape" fill="#706D6E"></path>
                <path d="M121.444783,32.2145275 C120.503008,32.5933626 119.901512,32.9103077 119.653992,33.1503736 C119.415124,33.3851209 119.294248,33.7131868 119.294248,34.1304615 C119.294248,34.502044 119.440837,34.7962637 119.755643,35.0406813 C120.064682,35.2826813 120.494597,35.404044 121.034093,35.404044 C121.539946,35.404044 122.057333,35.3264396 122.56607,35.1680879 C123.072163,35.0109451 123.52731,34.8047253 123.901473,34.5445934 L124.022349,34.4611868 L124.022349,37.2339121 L123.971884,37.2522857 C123.634248,37.4036264 123.173093,37.5307912 122.622302,37.6354725 C122.071271,37.7372527 121.565419,37.7882637 121.135504,37.7882637 C119.710465,37.7882637 118.535349,37.422 117.641636,36.702044 C116.736147,35.977011 116.275473,35.0254505 116.275473,33.872989 C116.275473,33.2734286 116.376403,32.7447033 116.570574,32.2935824 C116.767628,31.8412527 117.070659,31.4409011 117.475581,31.1058242 C117.868969,30.7750989 118.484884,30.4286593 119.305783,30.074967 C119.994271,29.7911429 120.503008,29.552044 120.831752,29.3612967 C121.152085,29.1761099 121.374372,28.9894725 121.503659,28.8069451 C121.627419,28.6258681 121.692062,28.3843516 121.692062,28.0845714 C121.692062,27.2260879 121.053798,26.8092967 119.744109,26.8092967 C119.255078,26.8092967 118.698279,26.9110769 118.091256,27.1117363 C117.488335,27.3123446 116.918838,27.6030471 116.401876,27.9740879 L116.275473,28.065956 L116.275473,25.1433407 L116.320651,25.1208571 C116.750806,24.9214066 117.287178,24.7548352 117.925442,24.6274286 C118.557698,24.4918022 119.134202,24.4265275 119.628519,24.4265275 C121.177798,24.4265275 122.419961,24.7956923 123.319682,25.5197582 C124.235744,26.2505934 124.696899,27.2246374 124.696899,28.4165055 C124.696899,29.274989 124.446496,30.0116264 123.957465,30.6070769 C123.46555,31.1976923 122.622302,31.7365714 121.444783,32.2145275" id="Path" fill="#706D6E"></path>
                <path d="M135.083101,27.9728791 C134.520775,27.2671868 133.677527,26.9096264 132.578349,26.9096264 C131.482535,26.9096264 130.616457,27.2727473 130.009434,27.9927033 C129.39376,28.717978 129.084721,29.7502857 129.084721,31.0581978 C129.084721,32.4108352 129.39376,33.4685275 130.009194,34.2037143 C130.616457,34.9362418 131.47124,35.3051648 132.550233,35.3051648 C133.601589,35.3051648 134.430899,34.9517143 135.026868,34.2520659 C135.628364,33.5478242 135.931636,32.5002857 135.931636,31.1314505 C135.931636,29.7502857 135.644946,28.6836484 135.08286,27.9728791 M132.710519,37.7906813 C130.622225,37.7906813 128.963605,37.172989 127.780078,35.9569451 C126.596791,34.7457363 125.995535,33.0614066 125.995535,30.9602857 C125.995535,28.9640879 126.582853,27.3590549 127.73538,26.1884615 C128.887907,25.0193187 130.461938,24.4265275 132.401721,24.4265275 C134.430899,24.4265275 136.058519,25.0488132 137.241566,26.2832308 C138.425093,27.5145055 139.021062,29.1770769 139.021062,31.2305714 C139.021062,33.2577143 138.46186,34.8755604 137.348744,36.0362418 C136.240915,37.2015165 134.678178,37.7906813 132.71076,37.7906813" id="Shape" fill="#706D6E"></path>
                <path d="M154.916372,35.0365714 L154.916372,37.4797802 L151.897597,37.4797802 L151.897597,41.2833626 L151.796667,41.2519341 L148.960287,40.3799121 L148.903814,40.3627473 L148.903814,37.4797802 L144.431884,37.4797802 L144.431884,39.0862637 C144.431884,39.834022 144.600341,40.4052967 144.923798,40.787033 C145.252543,41.1632088 145.716822,41.353956 146.309667,41.353956 C146.733814,41.353956 147.178147,41.2548352 147.619597,41.0541758 L147.729178,41.0058242 L147.729178,43.581033 L147.678713,43.597956 C147.26538,43.7502637 146.703054,43.8242418 146.000147,43.8242418 C145.120612,43.8242418 144.322302,43.6332527 143.625163,43.2500659 C142.92538,42.8680879 142.374589,42.3241319 141.989132,41.6269011 C141.607039,40.9354725 141.413109,40.1338022 141.413109,39.2455824 L141.413109,37.4797802 L139.310636,37.4797802 L139.310636,35.0365714 L141.413349,35.0365714 L141.413349,24.7335604 L144.431884,24.7335604 L144.431884,35.0365714 L148.904054,35.0365714 L148.904054,28.4887912 C148.904054,25.7951209 150.168806,24.4265275 152.65914,24.4265275 C153.069589,24.4265275 153.505271,24.4746374 153.943837,24.567956 C154.390814,24.6658681 154.69745,24.7618462 154.874318,24.8665275 L154.916372,24.889011 L154.916372,27.3590549 L154.795496,27.2754066 C154.632566,27.1683077 154.424457,27.0764396 154.188713,27.0114066 C153.943837,26.9422637 153.747264,26.9096264 153.58962,26.9096264 C153.005186,26.9096264 152.574791,27.0665275 152.307806,27.3774286 C152.032411,27.6941319 151.897597,28.2441319 151.897597,29.0177582 L151.897597,35.0365714 L154.916372,35.0365714 Z" id="Path" fill="#706D6E"></path>
                <polygon id="Path" fill="#F1511B" points="20.0800698 22.440967 0.177108527 22.440967 0.177108527 42.4682198 20.0800698 42.4682198"></polygon>
                <polygon id="Path" fill="#80CC28" points="42.0540233 22.440967 22.1469767 22.440967 22.1469767 42.4682198 42.0540233 42.4682198"></polygon>
                <polygon id="Path" fill="#00ADEF" points="20.0800698 0.320571429 0.177108527 0.320571429 0.177108527 20.3516923 20.0800698 20.3516923"></polygon>
                <polygon id="Path" fill="#FBBC09" points="42.0540233 0.320571429 22.1469767 0.320571429 22.1469767 20.3516923 42.0540233 20.3516923"></polygon>
                <path d="M65.0009922,7.47734066 L62.527,14.6285495 C62.4529845,14.8613626 62.3741628,15.2365714 62.2919767,15.7532088 L62.2417519,15.7532088 C62.1665349,15.2781538 62.0838682,14.9036703 61.9925504,14.6285495 L59.5449922,7.47734066 L65.0009922,7.47734066 Z M70.6295349,0.488835165 L67.3860698,0.488835165 L65.7832016,5.05226374 L58.7743178,5.05226374 L57.2339302,0.488835165 L54.0027209,0.488835165 L60.6763721,18.4164176 L64.0061085,18.4164176 L70.6295349,0.488835165 Z" id="Shape" fill="#706D6E"></path>
                <polygon id="Path" fill="#706D6E" points="81.640062 12.078 74.768876 2.75145055 81.6150698 2.75145055 81.6150698 0.488593407 70.7295039 0.488593407 70.7295039 1.57650549 77.7506434 11.0273187 71.4002093 11.0273187 71.4002093 13.2904176 81.6398217 13.2904176"></polygon>
                <path d="M94.6526124,0.488835165 L91.7696124,0.488835165 L91.7696124,2.51428571 L91.7196279,2.51428571 C90.8826279,0.96389011 89.5823101,0.188571429 87.8179535,0.188571429 C84.8109535,0.188571429 83.3068527,2.00538462 83.3068527,5.63925275 L83.3068527,13.2901758 L86.1898527,13.2901758 L86.1898527,5.93951648 C86.1898527,3.63894505 87.072031,2.4889011 88.8366279,2.4889011 C89.689969,2.4889011 90.3919147,2.8056044 90.9427054,3.43901099 C91.4942171,4.07217582 91.7696124,4.90164835 91.7696124,5.92718681 L91.7696124,13.2904176 L94.6526124,13.2904176 L94.6526124,0.488835165 Z" id="Path" fill="#706D6E"></path>
                <path d="M105.276481,10.5276044 C104.928752,10.8027253 104.428186,10.9398022 103.773822,10.9398022 C102.92024,10.9398022 102.208202,10.5527473 101.636504,9.77694505 C101.064566,9.00235165 100.779318,7.94828571 100.779318,6.61426374 L100.779318,0.488835165 L97.8960775,0.488835165 L97.8960775,13.2904176 L100.779318,13.2904176 L100.779318,10.6528352 L100.828101,10.6528352 C101.109264,11.5529011 101.542543,12.254967 102.126977,12.7585495 C102.711411,13.2630989 103.363372,13.5152527 104.084062,13.5152527 C104.605535,13.5152527 105.003729,13.4361978 105.276481,13.2776044 L105.276481,10.5276044 Z" id="Path" fill="#706D6E"></path>
                <path d="M114.572636,8.15208791 C114.563984,9.19406593 114.319829,10.0046813 113.839209,10.5836923 C113.358829,11.1627033 112.696775,11.4528132 111.851124,11.4528132 C111.022775,11.4528132 110.320589,11.1481978 109.745047,10.5404176 C109.169504,9.93118681 108.815287,9.13531868 108.682876,8.15184615 L114.572636,8.15208791 Z M117.356868,6.10197802 L108.682636,6.10197802 C108.715078,4.91881319 109.078186,4.00593407 109.770039,3.36406593 C110.462132,2.72195604 111.411837,2.40162637 112.621798,2.40162637 C113.980752,2.40162637 115.22724,2.80947253 116.361984,3.62637363 L116.361984,1.28857143 C115.202008,0.55556044 113.66907,0.188571429 111.764853,0.188571429 C109.891395,0.188571429 108.423581,0.770241758 107.358527,1.93261538 C106.293953,3.09523077 105.761907,4.73120879 105.761907,6.83982418 C105.761907,8.83142857 106.347543,10.4545934 107.520016,11.7088352 C108.692729,12.9635604 110.149248,13.5904396 111.888853,13.5904396 C113.627736,13.5904396 114.974434,13.0278681 115.927984,11.902967 C116.880333,10.7775824 117.356868,9.21461538 117.356868,7.21503297 L117.356868,6.10197802 Z" id="Shape" fill="#706D6E"></path>
            </g>
        </g>
        <g id="baidu-kcsp" transform="translate(401.000000, 140.000000)" fill-rule="nonzero">
            <g id="Group" transform="translate(93.500000, 14.000000) scale(-1, 1) rotate(-180.000000) translate(-93.500000, -14.000000) ">
                <path d="M21.0959219,22.8708054 L21.0992924,22.8733394 L12.3884379,27.981629 L10.9191522,27.1250317 C10.8423329,27.0882062 10.7669595,27.0483509 10.6932043,27.0055566 L1.34869693,21.5453032 L5.50114553,19.111457 C5.81651101,18.9266944 6.20498903,18.9265012 6.52053271,19.1109502 L8.60799199,20.3306606 L11.3276061,21.919819 C11.9645233,22.2919501 12.748438,22.2919501 13.3853551,21.919819 L15.5246202,20.6697014 L18.1580995,19.1309683 C18.4730949,18.9469552 18.8607351,18.9468104 19.1758638,19.1305882 L23.3394226,21.5598733 L21.0959219,22.8708054 Z" id="Path" fill="#00D263"></path>
                <path d="M20.4484126,16.9828235 C20.1321034,16.7979894 19.937173,16.455742 19.937221,16.0853032 L19.937221,10.4913846 C19.9369089,9.74561404 19.5440972,9.05682001 18.9070981,8.68506787 L14.0341128,5.83768326 C13.7177547,5.65282036 13.5227964,5.31053244 13.5227964,4.9400362 L13.5227964,0.0842533937 L22.9372103,5.58530317 C22.9501929,5.59277828 22.9623017,5.60139367 22.9752844,5.60924887 L24.6022343,6.56023529 L24.6022343,19.4104615 L20.4484126,16.9828235 Z" id="Path" fill="#FF502E"></path>
                <path d="M10.5331682,5.91256109 L5.80573832,8.67480543 C5.16872982,9.04659321 4.77595619,9.73545216 4.77574032,10.4812489 L4.77574032,16.0783348 C4.77578827,16.4487737 4.58085791,16.791021 4.26454873,16.9758552 L0.1123498,19.4024796 L0.110602136,19.4103348 L0.110602136,6.5601086 L1.56852804,5.70655204 C1.63501146,5.66065694 1.70313302,5.61725515 1.77275501,5.57643439 L11.0443598,0.158751131 L11.0443598,5.01491403 C11.0443598,5.38541027 10.8494015,5.72769819 10.5330434,5.91256109" id="Path" fill="#0062FF"></path>
                <path d="M41.6568091,10.7003077 C41.617237,10.4742805 41.5179947,10.249267 41.3564606,10.0181719 C41.13251,9.69686878 40.8521348,9.46666063 40.498233,9.31449774 C40.2379559,9.20224434 39.6978031,9.067819 38.6028919,9.067819 L36.9091562,9.067819 L36.9091562,13.0803077 L39.0263258,13.0595294 C39.4319085,13.0311493 39.8172684,12.9779367 40.007514,12.923457 C40.372526,12.8195656 40.6869806,12.6639819 40.9422644,12.4611403 C41.0357644,12.3866425 41.1120374,12.3042896 41.1881856,12.2220633 C41.2122784,12.1958371 41.2441108,12.1726516 41.2665808,12.1455385 C41.3565836,12.037902 41.433803,11.9198971 41.4966482,11.7939548 C41.6158638,11.5519638 41.6764079,11.260181 41.6764079,10.9269683 C41.6764079,10.8510769 41.6699166,10.7756923 41.6568091,10.7003077 M36.9091562,18.8602172 L38.4894186,18.8602172 C40.5844927,18.8602172 40.5844927,17.9146787 40.5844927,17.4602172 C40.5844927,16.8566335 40.3984913,16.4524706 39.9997744,16.1885611 C39.7537283,16.0265158 39.4020734,15.895638 39.062777,15.8253213 L36.9091562,15.8034027 L36.9091562,18.8602172 Z M42.0977196,14.7395294 C42.3227989,14.9626548 42.5184585,15.2144261 42.6798164,15.4885611 C43.0308471,16.087457 43.2086095,16.7507149 43.2086095,17.4602172 C43.2086095,18.7412489 42.7583364,19.7465882 41.8697744,20.4472217 C41.0287737,21.1106063 39.8155207,21.4472398 38.2640948,21.4472398 L34.3415888,21.4472398 L34.3415888,6.48142986 L39.3181856,6.48142986 C40.7620053,6.48142986 41.9641482,6.91169231 42.8915334,7.75954751 C43.8390167,8.62463348 44.3198738,9.72879638 44.3198738,11.0417557 C44.3198738,12.0234027 44.030261,12.8874751 43.4596489,13.6099005 C43.1063712,14.057267 42.6492323,14.4359638 42.0977196,14.7395294 M60.5595381,6.49916742 L63.0988932,6.49916742 L63.0988932,21.5626606 L60.5595381,21.5626606 L60.5595381,6.49916742 Z M50.2513191,12.7773756 L50.4820107,13.3271131 L51.733213,16.3081629 L53.2088652,12.7773756 L50.2513191,12.7773756 Z M51.1663458,21.4455928 L44.8290681,6.49916742 L47.6165915,6.49916742 L49.1696402,10.1999819 L54.2860501,10.1999819 L55.8328571,6.49916742 L58.5620834,6.49916742 L52.3035754,21.4455928 L51.1663458,21.4455928 Z M100.940053,12.7773756 L101.17087,13.3271131 L102.421947,16.3081629 L103.897475,12.7773756 L100.940053,12.7773756 Z M101.854955,21.4455928 L95.5178024,6.49916742 L98.3053258,6.49916742 L99.8584993,10.1999819 L104.974784,10.1999819 L106.521716,6.49916742 L109.250568,6.49916742 L102.99231,21.4455928 L101.854955,21.4455928 Z M111.258009,6.49916742 L113.79699,6.49916742 L113.79699,21.5626606 L111.258009,21.5626606 L111.258009,6.49916742 Z M136.873639,21.5105882 L134.334034,21.5105882 L134.334034,6.55060633 L144.221066,6.55060633 L144.221066,9.11875113 L136.873639,9.11875113 L136.873639,21.5105882 Z M70.0280047,9.10038009 L68.8495801,9.10038009 L68.8495801,18.8460271 L70.0280047,18.8460271 C72.6754653,18.8460271 74.8290861,16.6601267 74.8290861,13.973267 C74.8290861,11.2861538 72.6754653,9.10050679 70.0280047,9.10050679 M70.0280047,21.4472398 L66.2863818,21.4472398 L66.2863818,6.49916742 L70.0278798,6.49916742 C74.0885761,6.49916742 77.3922844,9.8519457 77.3922844,13.9731403 C77.3922844,18.0945882 74.0885761,21.4472398 70.0278798,21.4472398 M179.555078,9.10038009 L178.376903,9.10038009 L178.376903,18.8460271 L179.555078,18.8460271 C182.202289,18.8460271 184.35591,16.6601267 184.35591,13.973267 C184.35591,11.2861538 182.202289,9.10050679 179.555078,9.10050679 M179.555078,21.4472398 L175.81358,21.4472398 L175.81358,6.49916742 L179.555078,6.49916742 C183.615899,6.49916742 186.919108,9.8519457 186.919108,13.9731403 C186.919108,18.0945882 183.615774,21.4472398 179.555203,21.4472398 M87.9818772,12.0064253 C87.9818772,10.3330136 86.6406702,8.9720362 84.9918745,8.9720362 C83.3434533,8.9720362 82.0022463,10.3330136 82.0022463,12.0064253 L82.0022463,21.3366335 L79.4391729,21.3366335 L79.4391729,12.0064253 C79.4391729,8.89855204 81.9300928,6.37031674 84.9918745,6.37031674 C88.0540307,6.37031674 90.5448258,8.89867873 90.5448258,12.0064253 L90.5448258,21.3366335 L87.982002,21.3366335 L87.9818772,12.0064253 Z M170.476715,12.0064253 C170.476715,10.3330136 169.135508,8.9720362 167.486962,8.9720362 C165.838291,8.9720362 164.497084,10.3330136 164.497084,12.0064253 L164.497084,21.3366335 L161.93426,21.3366335 L161.93426,12.0064253 C161.93426,8.89855204 164.425305,6.37031674 167.487087,6.37031674 C170.548744,6.37031674 173.039664,8.89867873 173.039664,12.0064253 L173.039664,21.3366335 L170.476715,21.3366335 L170.476715,12.0064253 Z M127.884407,19.16619 C128.721214,19.1657983 129.54138,18.9288942 130.25299,18.4820271 L130.766803,18.1608507 L132.144212,20.3295204 L131.609926,20.6650136 C130.490133,21.3663215 129.200235,21.7377557 127.884407,21.7377557 C123.614115,21.7377557 120.139885,18.2814661 120.139885,14.0329412 C120.139885,9.78441629 123.613741,6.3281267 127.884032,6.3281267 C129.205765,6.3281267 130.493918,6.69630769 131.608678,7.39339367 L132.143587,7.72647964 L130.768551,9.89742986 L130.253989,9.57676018 C129.545686,9.13420814 128.726281,8.9001991 127.884032,8.9001991 C125.026977,8.9001991 122.702459,11.2027873 122.702459,14.0329412 C122.702459,16.8632217 125.026977,19.16619 127.884407,19.16619 M152.308754,8.77375566 C149.564547,8.77375566 147.332157,11.1329774 147.332157,14.0329412 C147.332157,16.9330317 149.564547,19.2922534 152.308754,19.2922534 C155.05296,19.2922534 157.285725,16.9330317 157.285725,14.0329412 C157.285725,11.1329774 155.05296,8.77375566 152.308629,8.77375566 M152.308629,21.8928326 C148.119479,21.8928326 144.711535,18.366733 144.711535,14.0329412 C144.711535,9.69864253 148.119479,6.17254299 152.308754,6.17254299 C156.498153,6.17254299 159.906346,9.69864253 159.906346,14.0329412 C159.906346,18.366733 156.498153,21.8928326 152.308754,21.8928326" id="Shape" fill="#232323"></path>
            </g>
        </g>
        <g id="tencent-cloud" transform="translate(477.000000, 35.000000)" fill-rule="nonzero">
            <g id="Group" transform="translate(0.000000, 51.000000)" fill="#000000">
                <path d="M61.7896057,7.95882353 C61.7896057,7.89411765 61.7258065,7.86176471 61.6620072,7.89411765 C60.8645161,8.8 59.6523297,9.51176471 58.1530466,9.51176471 C55.888172,9.51176471 54.4207885,7.92647059 54.4207885,5.46764706 C54.4207885,2.97647059 55.8243728,1.42352941 58.0573477,1.42352941 C59.365233,1.42352941 60.7050179,2.03823529 61.5344086,2.91176471 C61.5982079,2.97647059 61.6620072,2.91176471 61.6620072,2.84705882 L61.6620072,1.61764706 C60.7369176,0.776470588 59.4290323,0.258823529 58.0573477,0.258823529 C56.6537634,0.258823529 55.4415771,0.776470588 54.6121864,1.71470588 C53.7827957,2.65294118 53.3362007,3.94705882 53.3362007,5.5 C53.3362007,8.63823529 55.2820789,10.7411765 58.1530466,10.7411765 C59.5247312,10.7411765 60.8645161,10.2235294 61.7896057,9.35 L61.7896057,7.95882353 L61.7896057,7.95882353 Z" id="Path"></path>
                <polygon id="Path" points="0.223297491 0.517647059 0.223297491 1.61764706 3.6046595 1.61764706 3.6046595 10.45 4.75304659 10.45 4.75304659 1.61764706 8.16630824 1.61764706 8.16630824 0.517647059"></polygon>
                <path d="M87.7240143,3.91470588 C87.1179211,3.23529412 86.0971326,3.00882353 85.3953405,3.00882353 C84.4064516,3.00882353 83.5451613,3.36470588 82.9390681,4.04411765 C82.3010753,4.72352941 81.9820789,5.69411765 81.9820789,6.79411765 C81.9820789,9.44705882 83.7046595,10.6117647 85.4272401,10.6117647 C86.416129,10.6117647 87.2455197,10.2558824 87.755914,9.60882353 L87.755914,10.45 L88.9043011,10.45 L88.9043011,0.485294118 L87.7240143,0.485294118 L87.7240143,3.91470588 Z M87.6921147,6.82647059 C87.6921147,8.18529412 86.9265233,9.54411765 85.4272401,9.54411765 C84.3107527,9.54411765 83.0985663,8.70294118 83.0985663,6.85882353 C83.0985663,5.5 83.8003584,4.04411765 85.3315412,4.04411765 C87.0860215,4.07647059 87.6921147,5.56470588 87.6921147,6.82647059 Z" id="Shape"></path>
                <rect id="Rectangle" x="63.3207885" y="0.55" width="1.18028674" height="9.93235294"></rect>
                <path d="M29.2200717,8.63823529 C29.2200717,8.57352941 29.1562724,8.54117647 29.0924731,8.57352941 C28.3268817,9.28529412 27.2103943,9.54411765 26.7318996,9.54411765 C25.1688172,9.54411765 24.1480287,8.47647059 24.1480287,6.82647059 C24.1480287,5.17647059 25.1688172,4.10882353 26.7318996,4.10882353 C27.2103943,4.10882353 28.2949821,4.23823529 29.0924731,4.95 C29.1562724,4.98235294 29.188172,4.95 29.188172,4.88529412 L29.188172,3.78529412 C28.7096774,3.49411765 27.6888889,3.00882353 26.6362007,3.00882353 C24.4670251,3.00882353 22.9996416,4.52941176 22.9996416,6.82647059 C22.9996416,9.12352941 24.4670251,10.6441176 26.6362007,10.6441176 C27.5293907,10.6441176 28.4225806,10.3852941 29.188172,9.86764706 L29.2200717,8.63823529 L29.2200717,8.63823529 Z" id="Path"></path>
                <path d="M13.8763441,8.41176471 C13.8763441,8.34705882 13.7806452,8.31470588 13.7487455,8.37941176 C13.2383513,9.05882353 11.9623656,9.64117647 11.2286738,9.64117647 C10.4949821,9.64117647 9.79318996,9.41470588 9.44229391,8.99411765 C8.99569892,8.50882353 8.74050179,7.86176471 8.74050179,7.18235294 L14.2272401,7.18235294 L14.2272401,7.08529412 C14.2272401,5.5 13.972043,4.62647059 13.2702509,3.91470588 C12.6960573,3.33235294 11.9304659,3.00882353 10.9734767,3.00882353 C8.93189964,3.00882353 7.5921147,4.49705882 7.5921147,6.79411765 C7.65591398,9.18823529 9.02759857,10.6117647 11.1967742,10.6117647 C12.2494624,10.6117647 13.1107527,10.2558824 13.9082437,9.54411765 L13.8763441,8.41176471 L13.8763441,8.41176471 Z M13.1107527,6.14705882 L8.74050179,6.14705882 L8.74050179,6.11470588 C8.80430108,5.5 9.05949821,4.95 9.53799283,4.52941176 C9.92078853,4.20588235 10.4311828,4.04411765 10.9415771,4.04411765 C12.2175627,4.04411765 13.0469534,4.85294118 13.1107527,6.14705882 L13.1107527,6.14705882 Z" id="Shape"></path>
                <path d="M79.4620072,6.89117647 C79.4620072,8.86470588 78.3455197,9.57647059 77.3566308,9.57647059 C76.4315412,9.57647059 75.4107527,8.92941176 75.4107527,7.7 L75.4107527,3.20294118 L74.3261649,3.20294118 L74.3261649,7.7 C74.3261649,9.44705882 75.5383513,10.6764706 77.3247312,10.6764706 C78.3136201,10.6764706 79.0473118,10.3529412 79.5577061,9.70588235 L79.5577061,10.4823529 L80.6103943,10.4823529 L80.6103943,3.20294118 L79.4939068,3.20294118 L79.4620072,6.89117647 L79.4620072,6.89117647 Z" id="Path"></path>
                <path d="M18.8207885,3.00882353 C17.9275986,3.00882353 17.1620072,3.3 16.6516129,3.88235294 L16.6516129,3.20294118 L15.5351254,3.20294118 L15.5351254,10.4823529 L16.6516129,10.4823529 L16.6516129,6.30882353 C16.6516129,5.62941176 16.8749104,5.04705882 17.2258065,4.65882353 C17.6405018,4.27058824 18.1189964,4.07647059 18.7569892,4.10882353 C19.6501792,4.14117647 20.5433692,4.72352941 20.5433692,6.01764706 L20.5433692,10.4823529 L21.6917563,10.4823529 L21.6917563,5.95294118 C21.6917563,5.04705882 21.4046595,4.30294118 20.8623656,3.78529412 C20.383871,3.26764706 19.6501792,3.00882353 18.8207885,3.00882353 Z" id="Path"></path>
                <path d="M36.5888889,8.41176471 C36.5888889,8.34705882 36.49319,8.31470588 36.4612903,8.37941176 C35.9508961,9.05882353 34.6749104,9.64117647 33.9412186,9.64117647 C33.2075269,9.64117647 32.5057348,9.41470588 32.1548387,8.99411765 C31.7082437,8.50882353 31.4530466,7.86176471 31.4530466,7.18235294 L36.9397849,7.18235294 L36.9397849,7.08529412 C36.9397849,5.5 36.6845878,4.62647059 35.9827957,3.91470588 C35.4086022,3.33235294 34.6430108,3.00882353 33.6860215,3.00882353 C31.6444444,3.00882353 30.3046595,4.49705882 30.3046595,6.79411765 C30.3684588,9.18823529 31.7401434,10.6117647 33.909319,10.6117647 C34.9620072,10.6117647 35.8232975,10.2558824 36.6207885,9.54411765 L36.5888889,8.41176471 L36.5888889,8.41176471 Z M35.8232975,6.14705882 L31.4530466,6.14705882 L31.4530466,6.11470588 C31.5168459,5.5 31.772043,4.95 32.2505376,4.52941176 C32.6333333,4.20588235 33.1437276,4.04411765 33.6541219,4.04411765 C34.8982079,4.04411765 35.7275986,4.85294118 35.8232975,6.14705882 L35.8232975,6.14705882 Z" id="Shape"></path>
                <path d="M41.5014337,3.00882353 C40.6082437,3.00882353 39.8426523,3.3 39.3322581,3.88235294 L39.3322581,3.20294118 L38.2157706,3.20294118 L38.2157706,10.4823529 L39.3322581,10.4823529 L39.3322581,6.30882353 C39.3322581,5.62941176 39.5555556,5.04705882 39.9064516,4.65882353 C40.321147,4.27058824 40.7996416,4.07647059 41.4376344,4.10882353 C42.3308244,4.14117647 43.2240143,4.72352941 43.2240143,6.01764706 L43.2240143,10.4823529 L44.3405018,10.4823529 L44.3405018,5.95294118 C44.3405018,5.04705882 44.053405,4.30294118 43.5111111,3.78529412 C43.0645161,3.26764706 42.362724,3.00882353 41.5014337,3.00882353 Z" id="Path"></path>
                <path d="M48.0727599,10.5794118 C48.7426523,10.5470588 49.5401434,10.2558824 49.5401434,10.2558824 L49.5401434,9.15588235 C49.5401434,9.09117647 49.4763441,9.05882353 49.4444444,9.09117647 C49.1573477,9.18823529 48.5512545,9.38235294 48.2322581,9.41470588 C48.1046595,9.44705882 48.0089606,9.44705882 47.9451613,9.38235294 C47.881362,9.31764706 47.881362,9.28529412 47.881362,9.15588235 L47.881362,4.27058824 L49.9548387,4.27058824 L49.9548387,3.20294118 L47.881362,3.20294118 L47.881362,1.22941176 L46.7010753,1.22941176 L46.7010753,3.17058824 L45.5207885,3.17058824 L45.5207885,4.23823529 L46.7010753,4.23823529 L46.7010753,9.25294118 C46.7010753,9.67352941 46.8286738,10.0294118 47.083871,10.2558824 C47.3390681,10.45 47.6899642,10.5794118 48.0727599,10.5794118 Z" id="Path"></path>
                <path d="M69.5731183,3.00882353 C67.4996416,3.00882353 66.0960573,4.52941176 66.0960573,6.82647059 C66.0960573,9.09117647 67.4996416,10.6441176 69.5731183,10.6441176 C71.646595,10.6441176 73.0501792,9.12352941 73.0501792,6.82647059 C73.0501792,4.56176471 71.646595,3.00882353 69.5731183,3.00882353 Z M67.1487455,6.82647059 L67.1487455,6.82647059 C67.1487455,5.20882353 68.1057348,4.14117647 69.5412186,4.14117647 C70.9767025,4.14117647 71.9336918,5.24117647 71.9336918,6.85882353 C71.9336918,8.47647059 70.9767025,9.57647059 69.5412186,9.57647059 C68.1376344,9.54411765 67.1487455,8.44411765 67.1487455,6.82647059 Z" id="Shape"></path>
            </g>
            <g id="Group" transform="translate(14.000000, 0.000000)">
                <path d="M57.8348718,20.0964539 C55.2594872,17.506383 51.6666667,15.8836879 47.6605128,15.8836879 C44.2266667,15.8836879 41.2379487,17.0695035 38.6307692,19.129078 C37.4861538,20.0340426 36.3097436,21.0950355 34.8153846,22.5304965 C34.0523077,23.2170213 12.5589744,43.7503546 12.5589744,43.7503546 C13.7035897,43.906383 15.2297436,43.9375887 16.6287179,43.9687943 C17.9323077,43.9687943 42.6687179,43.9687943 43.7179487,43.9687943 C45.7846154,43.9687943 47.1517949,43.9687943 48.614359,43.8751773 C51.9528205,43.6255319 55.1005128,42.4397163 57.6441026,39.9744681 C63.2717949,34.5134752 63.3671795,25.6510638 57.8348718,20.0964539 M53.7015385,36.0425532 C52.5887179,37.1035461 50.6492308,38.3205674 47.4379487,38.4453901 C45.9435897,38.5078014 44.2266667,38.5078014 43.4,38.5078014 L26.1353846,38.5078014 C32.3989744,32.5163121 37.8994872,27.2737589 38.5035897,26.7120567 C39.0758974,26.1815603 40.3476923,24.964539 41.4605128,23.9971631 C43.9087179,21.8751773 46.0707692,21.4070922 47.5969231,21.4382979 C50.0133333,21.4695035 52.2071795,22.4368794 53.7969231,23.9971631 C57.1989744,27.3361702 57.1353846,32.7347518 53.7015385,36.0425532" id="Shape" fill="#00A1FF"></path>
                <path d="M23.1148718,18.7858156 C20.5712821,16.9446809 17.7415385,15.8836879 14.5302564,15.8836879 C10.5241026,15.8836879 6.93128205,17.506383 4.35589744,20.0964539 C-1.17641026,25.6510638 -1.11282051,34.5134752 4.57846154,39.9744681 C6.86769231,42.1900709 9.60205128,43.3446809 12.5271795,43.7815603 L18.0912821,38.5078014 C17.1692308,38.5078014 15.9292308,38.4765957 14.7846154,38.4453901 C11.5733333,38.351773 9.60205128,37.1347518 8.52102564,36.0425532 C5.08717949,32.7347518 4.99179487,27.3361702 8.36205128,23.9659574 C9.92,22.4056738 12.145641,21.4382979 14.5620513,21.4070922 C16.0882051,21.4070922 18.1230769,21.812766 20.4758974,23.7475177 C21.5887179,24.6524823 24.0369231,26.7744681 25.1179487,27.741844 C25.1815385,27.8042553 25.2451282,27.8042553 25.3087179,27.741844 L29.1241026,24.0595745 C29.1876923,23.9971631 29.1876923,23.9035461 29.1241026,23.8723404 C27.2482051,22.187234 24.6728205,19.9404255 23.1148718,18.7858156" id="Path" fill="#00C4D6"></path>
                <path d="M49.1548718,12.7319149 C46.5158974,5.42978723 39.3938462,0.187234043 31.0953846,0.187234043 C21.4933333,0.187234043 13.5764103,7.08368794 12.145641,16.070922 C12.9405128,15.9460993 13.7035897,15.8836879 14.5302564,15.8836879 C15.6748718,15.8836879 16.7558974,16.0085106 17.7415385,16.258156 C17.7733333,16.258156 17.7733333,16.258156 17.8051282,16.258156 C19.1087179,10.2042553 24.5774359,5.67943262 31.0635897,5.67943262 C36.5005128,5.67943262 41.2379487,8.89361702 43.3682051,13.4184397 C43.4,13.4808511 43.4635897,13.5120567 43.5271795,13.5120567 C45.1487179,13.0751773 47.0564103,12.8255319 48.9323077,12.9815603 C49.1230769,12.9815603 49.1866667,12.8879433 49.1548718,12.7319149" id="Path" fill="#006EFF"></path>
            </g>
        </g>
        <g id="huawei-ar21" transform="translate(210.000000, 135.000000)" fill-rule="nonzero">
            <path d="M60.6662926,26.8264546 L57,26.8264546 L57,11.0117658 L60.6662926,11.0117658 L60.6662926,17.4197077 L68.8249158,17.4197077 L68.8249158,11.0117658 L72.4912084,11.0117658 L72.4912084,26.8249839 L68.8249158,26.8249839 L68.8249158,20.2067286 L60.6662926,20.2067286 L60.6662926,26.8264546 Z M79.1399177,20.4817538 C79.1399177,23.2790698 80.0377853,24.4438827 83.0695847,24.4438827 C86.1013842,24.4438827 86.9603442,23.267304 86.9603442,20.4817538 L86.9603442,11.0102951 L90.6236438,11.0102951 L90.6236438,20.5699972 C90.812196,22.0598401 90.4515526,23.5658608 89.6060606,24.8159757 C88.1694725,26.3631768 86.0849233,27 83.0546203,27 C80.0243172,27 77.912832,26.3631768 76.4822297,24.8159757 C75.6801347,23.9658976 75.4826038,22.5731225 75.4826038,20.5699972 L75.4826038,11.0102951 L79.1234568,11.0102951 L79.1399177,20.4817538 Z M102.608679,11.0102951 L110.031051,26.8249839 L105.971193,26.8249839 L104.369996,23.0569905 L96.7979798,23.0569905 L95.2461654,26.8249839 L91.3509166,26.8249839 L98.7209128,11.0102951 L102.608679,11.0102951 Z M97.9741863,20.2405552 L103.166854,20.2405552 L100.522634,14.1635261 L97.9741863,20.2405552 Z M134.8526,11.0117658 L129.465395,26.8249839 L124.976057,26.8249839 L121.279835,15.035665 L118.032548,26.8411619 L113.565657,26.8411619 L107.763936,11.0279437 L111.699588,11.0279437 L115.739993,23.1849435 L119.136925,11.0279437 L123.457164,11.0279437 L127.359895,23.1849435 L131.120464,11.0279437 L134.8526,11.0117658 Z M139.798354,17.4417685 L149.939768,17.4417685 L149.939768,20.183197 L139.763936,20.183197 C139.783389,23.0246346 141.02095,24.0570825 143.909091,24.0570825 L149.924804,24.0570825 L149.924804,26.8117474 L143.738496,26.8117474 C141.817059,26.9882342 139.89263,26.4984833 138.303404,25.4248552 C136.416417,23.9114167 135.417199,21.5758976 135.636738,19.1919294 C135.636738,13.6031804 138.233071,11 143.837262,11 L149.923307,11 L149.923307,13.7561357 L143.907594,13.7561357 C141.267864,13.754665 139.93453,14.9415387 139.784886,17.4300028 M153.169098,11.0117658 L157,11.0117658 L157,26.8264546 L153.169098,26.8264546 L153.169098,11.0117658 Z" id="Shape" fill="#0A0808"></path>
            <path d="M21.5288284,29.6419308 C21.5827078,29.596669 21.5991709,29.5212328 21.5707346,29.4563576 C17.8256624,21.3546584 13.1570751,13.7203476 7.65937314,6.70779378 C7.65937314,6.70779378 3.28915524,10.8869635 3.59896178,15.0812206 C3.74776728,17.0356156 4.65890416,18.8508914 6.13279017,20.1294162 C9.94475764,23.8755818 19.1760946,28.6039276 21.3237873,29.673614 C21.3911366,29.7113322 21.4764456,29.6977537 21.530325,29.6434395 M20.102521,32.8479726 C20.0732588,32.7631794 19.9940222,32.7062981 19.9049632,32.7061524 L19.9049632,32.7031349 L4.53436801,33.2432587 C6.20013942,36.2395876 9.02431791,38.5660424 11.9323088,37.8524152 C13.9497929,37.3439747 18.5235552,34.1288806 20.0142186,33.0441069 L20.0142186,33.0395807 C20.1294607,32.9339699 20.0890511,32.8494813 20.0890511,32.8494813 M20.3345017,31.4554189 C20.4093342,31.3347209 20.2746357,31.2291101 20.2746357,31.2291101 L20.2761324,31.2230752 C13.5412075,26.6365495 0.442527001,19.586275 0.442527001,19.586275 C-1.02659756,24.1705109 1.27240699,29.1192824 5.70624493,30.9168039 C6.6449608,31.2918167 7.63748961,31.5118941 8.64566547,31.5685733 C8.87614956,31.6138351 17.7872035,31.5730995 20.1728635,31.5625384 C20.2402128,31.5549948 20.3000788,31.5142592 20.3315084,31.4539102 M21.355217,0.0181047066 C20.6847178,0.0784537284 18.8797579,0.491844528 18.8797579,0.491844528 C16.4955945,1.1043871 14.5948491,2.91334903 13.8480208,5.27450451 C13.4261956,6.88583175 13.4334231,8.58081148 13.8689738,10.1884236 C15.2264354,16.2625527 21.9119708,26.2472983 23.3457614,28.3414094 C23.4475336,28.4440027 23.531346,28.4062846 23.531346,28.4062846 C23.6181517,28.3851624 23.6780177,28.3036912 23.6735278,28.2131677 L23.6765211,28.2131677 C25.8855764,5.92476522 21.3567136,0 21.3567136,0 M26.4408336,28.4002497 C26.524646,28.4349504 26.6204316,28.398741 26.6623378,28.3172698 L26.6638344,28.3172698 C28.1395313,26.1658271 34.7831605,16.2369043 36.1331387,10.1884236 C36.5372342,8.57710473 36.5462141,6.89034957 36.1585818,5.27450451 C35.4015359,2.90090013 33.4796896,1.09141058 31.0789518,0.491844528 C31.0789518,0.491844528 29.9040816,0.19311687 28.6588688,0.016595981 C28.6588688,0.016595981 24.1030663,5.92778267 26.3181083,28.2297637 L26.3211016,28.2297637 C26.3225982,28.3052 26.3689944,28.3730926 26.4408336,28.398741 M30.077693,32.7197309 C30.077693,32.7197309 29.928028,32.7378356 29.9040816,32.8374115 C29.8861218,32.9128478 29.9085715,32.994319 29.9639476,33.0486331 C31.4306646,34.1122846 35.8906815,37.2730646 38.0458574,37.8659938 C38.0458574,37.8659938 42.0194631,39.2298817 45.4692412,33.2553285 L30.0806863,32.7121873 L30.077693,32.7197309 Z M49.5640755,19.5515744 C49.5640755,19.5515744 36.4983213,26.6184448 29.7409467,31.2140228 C29.6715357,31.2662953 29.6411985,31.3562423 29.6646176,31.4403317 C29.6646176,31.4403317 29.7289735,31.5565035 29.8232625,31.5565035 L29.8232625,31.559521 L41.6258441,31.5293465 C42.5332436,31.4573949 43.4250043,31.2499435 44.2719213,30.9137864 C46.47948,30.0417431 48.2560035,28.3278309 49.2198461,26.1431963 C50.1243746,24.0603919 50.2467197,21.7170794 49.5640755,19.5500656 M28.5062105,29.6585268 C28.5660765,29.7037886 28.6483923,29.7098235 28.7157415,29.673614 C30.915817,28.5662095 40.0798047,23.8695469 43.8738124,20.1429948 C45.3471713,18.8546538 46.2571019,17.032578 46.4061441,15.0721682 C46.6830244,10.7345823 42.3651892,6.72137231 42.3651892,6.72137231 C36.8785002,13.7156256 32.2175386,21.3295338 28.4762775,29.4095871 L28.4807675,29.4095871 C28.4403579,29.492567 28.4568211,29.5906341 28.5226737,29.6570181" id="Shape" fill="#E12229"></path>
        </g>
    </g>
</svg>